<?xml version="1.0" standalone="no"?>
<!DOCTYPE svg PUBLIC "-//W3C//DTD SVG 20010904//EN"
 "http://www.w3.org/TR/2001/REC-SVG-20010904/DTD/svg10.dtd">
<svg version="1.0" xmlns="http://www.w3.org/2000/svg"
 width="1080.000000pt" height="1080.000000pt" viewBox="0 0 1080.000000 1080.000000"
 preserveAspectRatio="xMidYMid meet">
<metadata>
Created by potrace 1.14, written by Peter Selinger 2001-2017
</metadata>
<g transform="translate(0.000000,1080.000000) scale(0.100000,-0.100000)"
fill="#000000" stroke="none">
<path d="M5070 10049 c-156 -14 -216 -20 -240 -24 -14 -2 -50 -6 -80 -10 -30
-3 -102 -15 -160 -25 -58 -11 -120 -22 -139 -25 -19 -3 -37 -8 -41 -10 -3 -2
-17 -6 -31 -9 -183 -35 -499 -132 -743 -228 -72 -28 -215 -93 -318 -145 -420
-211 -744 -433 -1097 -752 -494 -447 -926 -1074 -1174 -1706 -84 -214 -182
-525 -211 -675 -66 -332 -70 -356 -82 -480 -3 -30 -7 -66 -10 -80 -26 -158
-25 -774 1 -955 3 -16 7 -52 9 -80 6 -55 12 -100 26 -185 19 -110 20 -119 40
-215 6 -27 12 -59 14 -70 15 -72 82 -310 116 -415 137 -414 330 -806 568
-1155 66 -97 217 -299 246 -332 6 -6 29 -33 51 -60 351 -424 840 -821 1360
-1103 414 -225 916 -401 1365 -481 154 -27 207 -35 290 -44 36 -4 72 -9 81
-10 62 -12 262 -20 484 -20 262 0 396 7 570 29 22 3 65 8 95 12 184 20 696
142 865 207 22 8 74 27 115 42 299 107 718 322 980 503 161 111 358 260 400
302 3 3 39 34 80 69 73 62 355 342 415 411 78 91 176 212 230 285 33 44 63 81
67 83 5 2 8 10 8 17 0 7 4 15 8 17 5 2 47 62 94 133 283 434 479 878 612 1388
33 129 54 221 71 322 57 326 70 483 70 835 0 140 -4 291 -8 335 -4 44 -9 107
-12 140 -3 33 -9 89 -15 125 -19 134 -24 165 -25 170 -1 3 -5 25 -9 50 -11 63
-54 268 -66 310 -113 407 -189 610 -353 944 -165 337 -416 707 -682 1006 -122
138 -416 419 -538 515 -21 17 -44 35 -50 40 -27 24 -209 157 -298 218 -241
164 -628 367 -899 472 -80 31 -149 58 -155 59 -5 2 -17 6 -25 9 -43 18 -301
92 -410 118 -256 62 -443 95 -653 114 -37 4 -78 9 -90 12 -34 8 -633 10 -717
2z"/>
</g>
</svg>
